<svg preserveAspectRatio="none" width="100%" height="100%" overflow="visible" style="display: block;" viewBox="0 0 36.8336 35.2002" fill="none" xmlns="http://www.w3.org/2000/svg">
<path id="Icon" d="M18.4172 0C19.0831 0.000123414 19.6917 0.378402 19.9865 0.975586L24.7287 10.585L35.3371 12.1348L35.4592 12.1572C36.0629 12.2898 36.5557 12.7333 36.7482 13.3271C36.9535 13.9605 36.7817 14.6555 36.3049 15.1201L28.6301 22.5947L30.4416 33.1543C30.5542 33.8108 30.2842 34.4747 29.7453 34.8662C29.2064 35.2575 28.492 35.3089 27.9025 34.999L18.4172 30.0098L8.93183 34.999C8.34224 35.3091 7.62704 35.2577 7.08808 34.8662C6.54917 34.4747 6.27926 33.8108 6.3918 33.1543L8.20234 22.5947L0.529491 15.1201C0.0524898 14.6555 -0.120093 13.9606 0.085155 13.3271C0.290566 12.6936 0.838284 12.2311 1.49726 12.1348L12.1037 10.585L16.8479 0.975586L16.9064 0.866211C17.2186 0.332425 17.7927 0 18.4172 0ZM14.8361 12.958C14.5814 13.474 14.0891 13.8318 13.5197 13.915L5.50898 15.0859L11.3049 20.7295C11.7176 21.1315 11.9062 21.7114 11.8088 22.2793L10.4406 30.25L17.6027 26.4844L17.798 26.3965C18.2632 26.2206 18.7855 26.2498 19.2316 26.4844L26.3928 30.25L25.0256 22.2793C24.9282 21.7114 25.1167 21.1315 25.5295 20.7295L31.3234 15.0859L23.3137 13.915C22.7443 13.8318 22.2519 13.474 21.9973 12.958L18.4162 5.70312L14.8361 12.958Z" fill="var(--fill-0, #17191C)"/>
</svg>
