<svg preserveAspectRatio="none" width="100%" height="100%" overflow="visible" style="display: block;" viewBox="0 0 27.9997 27.9997" fill="none" xmlns="http://www.w3.org/2000/svg">
<path id="Icon" d="M24.5858 0.585786C25.3668 -0.195262 26.6329 -0.195262 27.4139 0.585786C28.195 1.36683 28.195 2.63286 27.4139 3.41391L16.828 13.9998L27.4139 24.5858C28.195 25.3668 28.195 26.6329 27.4139 27.4139C26.6329 28.195 25.3668 28.195 24.5858 27.4139L13.9998 16.828L3.41391 27.4139C2.63286 28.195 1.36683 28.195 0.585786 27.4139C-0.195262 26.6329 -0.195262 25.3668 0.585786 24.5858L11.1717 13.9998L0.585786 3.41391C-0.195262 2.63286 -0.195262 1.36684 0.585786 0.585786C1.36684 -0.195262 2.63286 -0.195262 3.41391 0.585786L13.9998 11.1717L24.5858 0.585786Z" fill="var(--fill-0, #17191C)"/>
</svg>
