<svg preserveAspectRatio="none" width="100%" height="100%" overflow="visible" style="display: block;" viewBox="0 0 18.6668 17.8501" fill="none" xmlns="http://www.w3.org/2000/svg">
<path id="Icon" d="M9.33297 0C9.71359 0 10.062 0.216313 10.2304 0.557617L12.5712 5.30273L17.8115 6.06836L17.666 7.05762L18.3642 7.77441L14.5742 11.4648L15.4687 16.6807L15.4834 16.8213C15.4928 17.1483 15.3407 17.4634 15.0712 17.6592C14.8018 17.8549 14.4554 17.9019 14.1474 17.792L14.0175 17.7354L9.33297 15.2705L4.6484 17.7354L4.51949 17.792C4.21146 17.902 3.86514 17.8549 3.59566 17.6592C3.28769 17.4355 3.13288 17.0559 3.19723 16.6807L4.09078 11.4648L0.302695 7.77441L0.207968 7.66895C0.00835179 7.41013 -0.0538407 7.0666 0.0487888 6.75C0.166166 6.38799 0.478869 6.1234 0.855429 6.06836L6.09371 5.30273L8.43648 0.557617L8.50777 0.435547C8.69231 0.165557 9 0.000107669 9.33297 0ZM7.65523 6.65918L7.59469 6.76562C7.43899 7.00289 7.18786 7.16435 6.90328 7.20605L6.75875 6.2168H6.75777L6.90328 7.20605L3.14742 7.75488L5.86422 10.4004C6.10009 10.6301 6.20797 10.9616 6.1523 11.2861L5.16695 11.1162H5.16598L6.1523 11.2861L5.5107 15.0215L8.86812 13.2568L8.97945 13.2061C9.24528 13.1055 9.54383 13.1228 9.79879 13.2568L9.33297 14.1406V14.1416L9.79879 13.2568L13.1552 15.0215L12.5146 11.2861C12.4589 10.9616 12.5668 10.6301 12.8027 10.4004L15.5175 7.75488L11.7636 7.20605C11.4383 7.15849 11.1572 6.95401 11.0117 6.65918L9.33297 3.25879L7.65523 6.65918ZM17.8115 6.06836C18.188 6.12345 18.5008 6.38804 18.6181 6.75C18.7354 7.11193 18.6367 7.50892 18.3642 7.77441L17.667 7.05859L17.8115 6.06836Z" fill="var(--fill-0, #B2B2B2)"/>
</svg>
