<svg preserveAspectRatio="none" width="100%" height="100%" overflow="visible" style="display: block;" viewBox="0 0 22.5004 21.52" fill="none" xmlns="http://www.w3.org/2000/svg">
<path id="Icon" d="M11.2502 0C11.7259 0 12.1607 0.269811 12.3713 0.696289L15.1701 6.36816L21.4309 7.2832C21.9016 7.352 22.2929 7.68226 22.4397 8.13477C22.5862 8.5871 22.4628 9.08322 22.1223 9.41504L17.593 13.8252L18.6623 20.0586L18.6799 20.2344C18.6916 20.643 18.5019 21.0365 18.1652 21.2812C17.8284 21.526 17.3951 21.5848 17.01 21.4473L16.8488 21.376L11.2502 18.4316L5.65157 21.376L5.49044 21.4473C5.10533 21.5848 4.67205 21.526 4.33517 21.2812C3.95038 21.0016 3.75768 20.5275 3.8381 20.0586L4.90646 13.8252L0.378135 9.41504C0.0375794 9.08322 -0.0857487 8.5871 0.0607526 8.13477C0.207475 7.68226 0.598842 7.352 1.06954 7.2832L7.32931 6.36816L10.1291 0.696289L10.218 0.543945C10.4487 0.206455 10.8339 0 11.2502 0ZM9.28146 8.06348L9.20528 8.19629C9.01057 8.49286 8.69683 8.69506 8.34103 8.74707L3.93478 9.39062L7.12228 12.4941C7.41712 12.7813 7.5522 13.1959 7.48263 13.6016L6.25021 13.3896H6.24923L7.48263 13.6016L6.7297 17.9844L10.6682 15.9141L10.8078 15.8506C11.1401 15.7248 11.5135 15.7464 11.8322 15.9141L11.2492 17.0195H11.2502L11.8322 15.9141L15.7697 17.9844L15.0178 13.6016C14.9482 13.1959 15.0833 12.7813 15.3781 12.4941L18.5647 9.39062L14.1594 8.74707L14.34 7.50977H14.3391L14.1594 8.74707C13.8036 8.69506 13.4898 8.49286 13.2951 8.19629L13.219 8.06348L11.2502 4.07422L9.28146 8.06348Z" fill="var(--fill-0, #ECECEC)"/>
</svg>
