<svg preserveAspectRatio="none" width="100%" height="100%" overflow="visible" style="display: block;" viewBox="0 0 39.9998 39.9998" fill="none" xmlns="http://www.w3.org/2000/svg">
<path id="Icon" d="M32 18C32 10.268 25.732 4 18 4C10.268 4 4 10.268 4 18C4 25.732 10.268 32 18 32C21.7783 32 25.206 30.5022 27.7246 28.0693C27.7743 28.0059 27.8274 27.9441 27.8857 27.8857C27.9441 27.8274 28.0059 27.7743 28.0693 27.7246C30.5022 25.206 32 21.7783 32 18ZM36 18C36 22.25 34.5258 26.155 32.0625 29.2344L39.4141 36.5859C40.1951 37.367 40.1951 38.633 39.4141 39.4141C38.633 40.1951 37.367 40.1951 36.5859 39.4141L29.2344 32.0625C26.155 34.5258 22.25 36 18 36C8.05887 36 0 27.9411 0 18C0 8.05887 8.05887 0 18 0C27.9411 0 36 8.05887 36 18Z" fill="var(--fill-0, #17191C)"/>
</svg>
