<svg preserveAspectRatio="none" width="100%" height="100%" overflow="visible" style="display: block;" viewBox="0 0 15.0003 14.3467" fill="none" xmlns="http://www.w3.org/2000/svg">
<path id="Icon" d="M7.50014 0C7.81725 0 8.10711 0.179874 8.24753 0.464193L10.1134 4.24544L14.2872 4.85547C14.601 4.90134 14.862 5.1215 14.9598 5.42318C15.0574 5.72473 14.9752 6.05548 14.7482 6.27669L11.7287 9.2168L12.4415 13.3724L12.4533 13.4896C12.4611 13.762 12.3346 14.0244 12.1102 14.1875C11.8856 14.3507 11.5967 14.3899 11.34 14.2982L11.2326 14.2507L7.50014 12.2878L3.76771 14.2507L3.66029 14.2982C3.40355 14.3899 3.1147 14.3507 2.89011 14.1875C2.63358 14.001 2.50512 13.685 2.55873 13.3724L3.27097 9.2168L0.25209 6.27669C0.025053 6.05548 -0.0571658 5.72473 0.0405017 5.42318C0.138316 5.1215 0.399228 4.90134 0.713028 4.85547L4.8862 4.24544L6.75274 0.464193L6.81199 0.36263C6.96582 0.137637 7.22261 0 7.50014 0ZM6.18764 5.37565L6.13686 5.46419C6.00705 5.66191 5.79789 5.79671 5.56068 5.83138L2.62318 6.26042L4.74818 8.32943C4.94474 8.52088 5.0348 8.79727 4.98842 9.06771L4.1668 8.92643H4.16615L4.98842 9.06771L4.48646 11.9896L7.11212 10.6094L7.20522 10.5671C7.42675 10.4832 7.67567 10.4976 7.88816 10.6094L7.49949 11.3464H7.50014L7.88816 10.6094L10.5132 11.9896L10.0119 9.06771C9.96547 8.79727 10.0555 8.52088 10.2521 8.32943L12.3764 6.26042L9.43959 5.83138L9.56003 5.00651H9.55938L9.43959 5.83138C9.20238 5.79671 8.99323 5.66191 8.86342 5.46419L8.81264 5.37565L7.50014 2.71615L6.18764 5.37565Z" fill="var(--fill-0, #0A76DB)"/>
</svg>
