<svg preserveAspectRatio="none" width="100%" height="100%" overflow="visible" style="display: block;" viewBox="0 0 13.906 13.906" fill="none" xmlns="http://www.w3.org/2000/svg">
<path id="Icon" d="M12.953 6H7.906V0.953C7.906 0.426 7.479 0 6.953 0C6.426 0 6 0.426 6 0.953V6H0.953C0.426 6 0 6.426 0 6.953C0 7.479 0.426 7.906 0.953 7.906H6V12.953C6 13.479 6.426 13.906 6.953 13.906C7.479 13.906 7.906 13.479 7.906 12.953V7.906H12.953C13.479 7.906 13.906 7.479 13.906 6.953C13.906 6.426 13.479 6 12.953 6Z" fill="var(--fill-0, #17191C)"/>
</svg>
