<svg preserveAspectRatio="none" width="100%" height="100%" overflow="visible" style="display: block;" viewBox="0 0 14.4998 14.4998" fill="none" xmlns="http://www.w3.org/2000/svg">
<path id="Icon" d="M12.3661 0.366117C12.8543 -0.122039 13.6455 -0.122039 14.1337 0.366117C14.6219 0.854272 14.6219 1.64554 14.1337 2.13369L9.01748 7.24991L14.1337 12.3661C14.6219 12.8543 14.6219 13.6455 14.1337 14.1337C13.6455 14.6219 12.8543 14.6219 12.3661 14.1337L7.24991 9.01748L2.13369 14.1337C1.64554 14.6219 0.854272 14.6219 0.366117 14.1337C-0.122039 13.6455 -0.122039 12.8543 0.366117 12.3661L5.48233 7.24991L0.366117 2.13369C-0.122039 1.64554 -0.122039 0.854272 0.366117 0.366117C0.854272 -0.122039 1.64554 -0.122039 2.13369 0.366117L7.24991 5.48233L12.3661 0.366117Z" fill="var(--fill-0, #FFE9E8)"/>
</svg>
