<svg preserveAspectRatio="none" width="100%" height="100%" overflow="visible" style="display: block;" viewBox="0 0 20.4999 20.4999" fill="none" xmlns="http://www.w3.org/2000/svg">
<path id="Icon" d="M16 9.25C16 5.52208 12.9779 2.5 9.25 2.5C5.52208 2.5 2.5 5.52208 2.5 9.25C2.5 12.9779 5.52208 16 9.25 16C11.0682 16 12.717 15.2794 13.9307 14.1104C13.9572 14.0778 13.9863 14.0469 14.0166 14.0166C14.0469 13.9863 14.0778 13.9572 14.1104 13.9307C15.2794 12.717 16 11.0682 16 9.25ZM18.5 9.25C18.5 11.3536 17.796 13.2917 16.6133 14.8457L20.1338 18.3662C20.6219 18.8544 20.6219 19.6456 20.1338 20.1338C19.6456 20.6219 18.8544 20.6219 18.3662 20.1338L14.8457 16.6133C13.2917 17.796 11.3536 18.5 9.25 18.5C4.14137 18.5 0 14.3586 0 9.25C0 4.14137 4.14137 0 9.25 0C14.3586 0 18.5 4.14137 18.5 9.25Z" fill="var(--fill-0, #17191C)"/>
</svg>
