<svg preserveAspectRatio="none" width="100%" height="100%" overflow="visible" style="display: block;" viewBox="0 0 29.6668 28.3598" fill="none" xmlns="http://www.w3.org/2000/svg">
<path id="Icon" d="M6.5937 26.8604L7.29194 28.1875C6.78657 28.4533 6.17383 28.4088 5.71187 28.0732C5.24993 27.7376 5.01867 27.1692 5.11519 26.6064L6.5937 26.8604ZM24.5517 26.6064C24.6482 27.1691 24.4168 27.7376 23.955 28.0732C23.4931 28.4088 22.8803 28.4533 22.375 28.1875L23.0732 26.8604L24.5517 26.6064ZM14.833 0C15.4039 0 15.926 0.323982 16.1787 0.835938L19.9501 8.47559L28.3837 9.70898C28.9485 9.79159 29.4176 10.1876 29.5937 10.7305C29.7698 11.2735 29.6218 11.8693 29.2128 12.2676L28.1669 11.1934H28.166L29.2128 12.2676L23.1113 18.21L24.5517 26.6064L23.0732 26.8594L22.375 28.1875L14.833 24.2207L7.29194 28.1875L6.5937 26.8594L5.11519 26.6064L6.55464 18.21L0.453076 12.2676C0.0443681 11.8693 -0.102832 11.2734 0.0731934 10.7305C0.249317 10.1876 0.718393 9.79153 1.28315 9.70898L9.71675 8.47559L13.4882 0.835938C13.7409 0.32414 14.2622 0.000123402 14.833 0ZM12.0585 10.5107C11.8403 10.9529 11.4185 11.2596 10.9306 11.3311L4.72163 12.2383L9.21284 16.6123L8.16597 17.6855L8.16694 17.6865L9.21284 16.6123C9.56665 16.9569 9.72895 17.4536 9.64546 17.9404L8.58491 24.1172L14.1347 21.1992L14.3027 21.124C14.7014 20.9732 15.1488 20.9981 15.5312 21.1992L14.832 22.5264H14.833L15.5312 21.1992L21.08 24.1172L20.0214 17.9404C19.938 17.4537 20.0994 16.9569 20.4531 16.6123L24.9433 12.2383L18.7363 11.3311C18.3092 11.2686 17.9328 11.0259 17.6992 10.6699L17.6083 10.5107L14.833 4.88867L12.0585 10.5107Z" fill="var(--fill-0, #17191C)"/>
</svg>
