<svg preserveAspectRatio="none" width="100%" height="100%" overflow="visible" style="display: block;" viewBox="0 0 40.5 28" fill="none" xmlns="http://www.w3.org/2000/svg">
<g id="Switch">
<path d="M0 10.5C0 6.63401 3.13401 3.5 7 3.5H27C30.866 3.5 34 6.63401 34 10.5C34 14.366 30.866 17.5 27 17.5H7C3.13401 17.5 0 14.366 0 10.5Z" fill="var(--fill-0, #0A76DB)"/>
<g id="Knob" filter="url(#filter0_dd_3253_3642)">
<path d="M37 10.5C37 16.0228 32.5228 20.5 27 20.5C21.4772 20.5 17 16.0228 17 10.5C17 4.97715 21.4772 0.5 27 0.5C32.5228 0.5 37 4.97715 37 10.5Z" fill="var(--fill-0, white)"/>
<path d="M37 10.5C37 16.0228 32.5228 20.5 27 20.5C21.4772 20.5 17 16.0228 17 10.5C17 4.97715 21.4772 0.5 27 0.5C32.5228 0.5 37 4.97715 37 10.5Z" stroke="var(--stroke-0, #0A76DB)"/>
</g>
</g>
<defs>
<filter id="filter0_dd_3253_3642" x="13.5" y="0" width="27" height="28" filterUnits="userSpaceOnUse" color-interpolation-filters="sRGB">
<feFlood flood-opacity="0" result="BackgroundImageFix"/>
<feColorMatrix in="SourceAlpha" type="matrix" values="0 0 0 0 0 0 0 0 0 0 0 0 0 0 0 0 0 0 127 0" result="hardAlpha"/>
<feMorphology radius="1" operator="erode" in="SourceAlpha" result="effect1_dropShadow_3253_3642"/>
<feOffset dy="4"/>
<feGaussianBlur stdDeviation="2"/>
<feComposite in2="hardAlpha" operator="out"/>
<feColorMatrix type="matrix" values="0 0 0 0 0.0743502 0 0 0 0 0.0743502 0 0 0 0 0.0743502 0 0 0 0.1 0"/>
<feBlend mode="normal" in2="BackgroundImageFix" result="effect1_dropShadow_3253_3642"/>
<feColorMatrix in="SourceAlpha" type="matrix" values="0 0 0 0 0 0 0 0 0 0 0 0 0 0 0 0 0 0 127 0" result="hardAlpha"/>
<feMorphology radius="1" operator="erode" in="SourceAlpha" result="effect2_dropShadow_3253_3642"/>
<feOffset dy="4"/>
<feGaussianBlur stdDeviation="2"/>
<feComposite in2="hardAlpha" operator="out"/>
<feColorMatrix type="matrix" values="0 0 0 0 0.0743502 0 0 0 0 0.0743502 0 0 0 0 0.0743502 0 0 0 0.2 0"/>
<feBlend mode="normal" in2="effect1_dropShadow_3253_3642" result="effect2_dropShadow_3253_3642"/>
<feBlend mode="normal" in="SourceGraphic" in2="effect2_dropShadow_3253_3642" result="shape"/>
</filter>
</defs>
</svg>
