<svg preserveAspectRatio="none" width="100%" height="100%" overflow="visible" style="display: block;" viewBox="0 0 43.9999 42.0402" fill="none" xmlns="http://www.w3.org/2000/svg">
<path id="Icon" d="M21.9999 0C22.7612 0 23.456 0.432627 23.7929 1.11523L29.5078 12.6924L42.289 14.5605L41.999 16.5391L41.9999 16.54L42.289 14.5605C43.042 14.6706 43.6675 15.199 43.9023 15.9229C44.137 16.6468 43.9406 17.4416 43.3954 17.9727L34.1484 26.9785L36.331 39.7021C36.4596 40.4525 36.151 41.2108 35.5351 41.6582C34.9192 42.1055 34.1024 42.1649 33.4287 41.8105L34.3603 40.04H34.3593L33.4287 41.8105L21.9999 35.7998L10.5712 41.8105C9.89749 42.1649 9.08071 42.1055 8.46478 41.6582C7.84888 41.2108 7.54027 40.4525 7.66888 39.7021L9.85052 26.9785L0.604429 17.9727C0.0592318 17.4416 -0.137155 16.6468 0.0975926 15.9229C0.332423 15.199 0.957858 14.6706 1.71087 14.5605L14.4911 12.6924L20.207 1.11523L20.2734 0.989258C20.6302 0.379426 21.2863 0 21.9999 0ZM17.6132 15.4053L17.4921 15.6172C17.1806 16.092 16.6788 16.4157 16.1093 16.499L15.8203 14.5195H15.8193L16.1093 16.499L6.29584 17.9326L13.3954 24.8477C13.867 25.3071 14.0829 25.9692 13.9716 26.6182L12.2958 36.3828L21.0693 31.7695L21.1796 31.7158C21.7383 31.4645 22.3844 31.4824 22.9306 31.7695L31.7031 36.3828L30.0283 26.6182C29.917 25.9692 30.1328 25.3071 30.6044 24.8477L37.7031 17.9326L27.8906 16.499L28.1796 14.5195H28.1787L27.8906 16.499C27.3211 16.4157 26.8192 16.092 26.5078 15.6172L26.3867 15.4053L21.9999 6.5166L17.6132 15.4053Z" fill="var(--fill-0, #17191C)"/>
</svg>
