<svg preserveAspectRatio="none" width="100%" height="100%" overflow="visible" style="display: block;" viewBox="0 0 37 20" fill="none" xmlns="http://www.w3.org/2000/svg">
<g id="Switch">
<mask id="path-1-inside-1_3253_3633" fill="white">
<path d="M3 10C3 6.13401 6.13401 3 10 3H30C33.866 3 37 6.13401 37 10C37 13.866 33.866 17 30 17H10C6.13401 17 3 13.866 3 10Z"/>
</mask>
<path d="M3 10C3 6.13401 6.13401 3 10 3H30C33.866 3 37 6.13401 37 10C37 13.866 33.866 17 30 17H10C6.13401 17 3 13.866 3 10Z" fill="var(--fill-0, #F7F7F7)"/>
<path d="M10 3V4H30V3V2H10V3ZM30 17V16H10V17V18H30V17ZM10 17V16C6.68629 16 4 13.3137 4 10H3H2C2 14.4183 5.58172 18 10 18V17ZM37 10H36C36 13.3137 33.3137 16 30 16V17V18C34.4183 18 38 14.4183 38 10H37ZM30 3V4C33.3137 4 36 6.68629 36 10H37H38C38 5.58172 34.4183 2 30 2V3ZM10 3V2C5.58172 2 2 5.58172 2 10H3H4C4 6.68629 6.68629 4 10 4V3Z" fill="var(--stroke-0, #BABFCC)" mask="url(#path-1-inside-1_3253_3633)"/>
<path id="Knob" d="M10 0.5C15.2467 0.5 19.5 4.75329 19.5 10C19.5 15.2467 15.2467 19.5 10 19.5C4.75329 19.5 0.5 15.2467 0.5 10C0.5 4.75329 4.75329 0.5 10 0.5Z" fill="var(--fill-0, #F7F7F7)" stroke="var(--stroke-0, #BABFCC)"/>
</g>
</svg>
