<svg preserveAspectRatio="none" width="100%" height="100%" overflow="visible" style="display: block;" viewBox="0 0 18.9998 18.9998" fill="none" xmlns="http://www.w3.org/2000/svg">
<path id="Icon" d="M16.4393 0.43934C17.0251 -0.146446 17.9746 -0.146447 18.5604 0.43934C19.1462 1.02513 19.1462 1.97465 18.5604 2.56043L11.621 9.49989L18.5604 16.4393C19.1462 17.0251 19.1462 17.9746 18.5604 18.5604C17.9746 19.1462 17.0251 19.1462 16.4393 18.5604L9.49989 11.621L2.56043 18.5604C1.97465 19.1462 1.02513 19.1462 0.43934 18.5604C-0.146447 17.9746 -0.146446 17.0251 0.43934 16.4393L7.37879 9.49989L0.43934 2.56043C-0.146447 1.97465 -0.146447 1.02513 0.43934 0.43934C1.02513 -0.146447 1.97465 -0.146447 2.56043 0.43934L9.49989 7.37879L16.4393 0.43934Z" fill="var(--fill-0, #17191C)"/>
</svg>
