<svg preserveAspectRatio="none" width="100%" height="100%" overflow="visible" style="display: block;" viewBox="0 0 9.59949 9.59949" fill="none" xmlns="http://www.w3.org/2000/svg">
<path id="Icon" d="M8.23431 0.234315C8.54673 -0.0781049 9.05276 -0.0781049 9.36517 0.234315C9.67759 0.546734 9.67759 1.05275 9.36517 1.36517L5.9306 4.79974L9.36517 8.23431C9.67759 8.54673 9.67759 9.05276 9.36517 9.36517C9.05276 9.67759 8.54673 9.67759 8.23431 9.36517L4.79974 5.9306L1.36517 9.36517C1.05275 9.67759 0.546734 9.67759 0.234315 9.36517C-0.0781049 9.05276 -0.0781049 8.54673 0.234315 8.23431L3.66888 4.79974L0.234315 1.36517C-0.0781049 1.05275 -0.0781049 0.546734 0.234315 0.234315C0.546734 -0.0781049 1.05275 -0.0781049 1.36517 0.234315L4.79974 3.66888L8.23431 0.234315Z" fill="var(--fill-0, #B2B2B2)"/>
</svg>
