<svg preserveAspectRatio="none" width="100%" height="100%" overflow="visible" style="display: block;" viewBox="0 0 14.9336 14.2798" fill="none" xmlns="http://www.w3.org/2000/svg">
<path id="Icon" d="M7.46686 0C7.77108 0.000123174 8.04886 0.172605 8.18366 0.445312L10.0577 4.24219L14.2491 4.85449L14.3594 4.87891C14.6103 4.9528 14.8124 5.14613 14.8946 5.39941C14.9885 5.68902 14.9096 6.0073 14.6915 6.21973L11.6583 9.17285L12.3751 13.3447L12.3858 13.457C12.3933 13.7186 12.2723 13.9703 12.0567 14.127C11.8103 14.3059 11.4835 14.3292 11.2139 14.1875L7.46589 12.2168L3.71882 14.1875L3.6153 14.2334C3.36888 14.3213 3.09159 14.2835 2.87604 14.127C2.62988 13.948 2.50632 13.6447 2.55768 13.3447L3.2735 9.17188L0.241278 6.21973C0.0232778 6.0073 -0.0547549 5.68896 0.0391293 5.39941C0.133121 5.10999 0.383513 4.89851 0.684637 4.85449L4.87507 4.24219L6.74909 0.445312L7.46589 0.799805H7.46686L6.74909 0.445312C6.88392 0.172433 7.16247 0 7.46686 0ZM6.12409 5.32715L6.07526 5.41211C5.9507 5.6019 5.75017 5.73129 5.52253 5.76465L2.51862 6.20312L4.69147 8.32031C4.88003 8.50408 4.96642 8.76881 4.92194 9.02832L4.40827 12.0166L7.09382 10.6055L7.46589 11.3135H7.46686L7.09382 10.6055C7.32692 10.4829 7.60583 10.4829 7.83893 10.6055L10.5235 12.0166L10.0118 9.02832L10.001 8.93066C9.99036 8.70376 10.0764 8.48105 10.2413 8.32031L10.7989 8.89258H10.7999L10.2413 8.32031L12.4141 6.20312L9.4112 5.76465L9.52643 4.97266H9.52546L9.4112 5.76465C9.18337 5.73135 8.98209 5.60206 8.85749 5.41211L8.80964 5.32715L7.46589 2.60645L6.12409 5.32715Z" fill="var(--fill-0, #B2B2B2)"/>
</svg>
