<svg preserveAspectRatio="none" width="100%" height="100%" overflow="visible" style="display: block;" viewBox="0 0 11.0776 11.0776" fill="none" xmlns="http://www.w3.org/2000/svg">
<path id="Icon" d="M10.3184 4.77962H6.29795V0.759163C6.29795 0.339353 5.9578 0 5.53879 0C5.11898 0 4.77962 0.339353 4.77962 0.759163V4.77962H0.759163C0.339353 4.77962 0 5.11898 0 5.53879C0 5.9578 0.339353 6.29795 0.759163 6.29795H4.77962V10.3184C4.77962 10.7374 5.11898 11.0776 5.53879 11.0776C5.9578 11.0776 6.29795 10.7374 6.29795 10.3184V6.29795H10.3184C10.7374 6.29795 11.0776 5.9578 11.0776 5.53879C11.0776 5.11898 10.7374 4.77962 10.3184 4.77962Z" fill="var(--fill-0, #ECECEC)"/>
</svg>
