<svg preserveAspectRatio="none" width="100%" height="100%" overflow="visible" style="display: block;" viewBox="0 0 26.9999 26.9999" fill="none" xmlns="http://www.w3.org/2000/svg">
<path id="Icon" d="M21.333 12.167C21.333 7.10449 17.2295 3.00018 12.167 3C7.10438 3 3 7.10438 3 12.167C3.00018 17.2295 7.10449 21.333 12.167 21.333C14.6393 21.3329 16.8806 20.352 18.5293 18.7607C18.5632 18.7186 18.6006 18.6787 18.6396 18.6396C18.6787 18.6006 18.7186 18.5632 18.7607 18.5293C20.352 16.8806 21.3329 14.6393 21.333 12.167ZM24.333 12.167C24.3329 14.9858 23.3708 17.5778 21.7617 19.6406L26.5605 24.4395C27.1463 25.0252 27.1463 25.9748 26.5605 26.5605C25.9748 27.1463 25.0252 27.1463 24.4395 26.5605L19.6406 21.7617C17.5778 23.3708 14.9858 24.3329 12.167 24.333C5.44764 24.333 0.000175749 18.8863 0 12.167C0 5.44753 5.44753 0 12.167 0C18.8863 0.000175754 24.333 5.44764 24.333 12.167Z" fill="var(--fill-0, #17191C)"/>
</svg>
