<svg preserveAspectRatio="none" width="100%" height="100%" overflow="visible" style="display: block;" viewBox="0 0 23.4997 23.4997" fill="none" xmlns="http://www.w3.org/2000/svg">
<path id="Icon" d="M20.5126 0.512563C21.196 -0.170854 22.3038 -0.170854 22.9872 0.512563C23.6706 1.19598 23.6706 2.30375 22.9872 2.98717L14.2245 11.7499L22.9872 20.5126C23.6706 21.196 23.6706 22.3038 22.9872 22.9872C22.3038 23.6706 21.196 23.6706 20.5126 22.9872L11.7499 14.2245L2.98717 22.9872C2.30375 23.6706 1.19598 23.6706 0.512563 22.9872C-0.170854 22.3038 -0.170854 21.196 0.512563 20.5126L9.27526 11.7499L0.512563 2.98717C-0.170854 2.30375 -0.170854 1.19598 0.512563 0.512563C1.19598 -0.170854 2.30375 -0.170854 2.98717 0.512563L11.7499 9.27526L20.5126 0.512563Z" fill="var(--fill-0, #17191C)"/>
</svg>
