<svg preserveAspectRatio="none" width="100%" height="100%" overflow="visible" style="display: block;" viewBox="0 0 22.4001 21.4201" fill="none" xmlns="http://www.w3.org/2000/svg">
<path id="Icon" d="M11.1996 0C11.6563 0 12.0743 0.259576 12.2765 0.669141L15.0855 6.36328L21.3738 7.28203L21.1992 8.46914L22.0371 9.3293L17.489 13.7578L18.5625 20.0168L18.58 20.1855C18.5914 20.578 18.4089 20.956 18.0855 21.191C17.7622 21.4259 17.3465 21.4823 16.9769 21.3504L16.821 21.2824L11.1996 18.3246L5.57808 21.2824L5.42339 21.3504C5.05375 21.4824 4.63817 21.4258 4.3148 21.191C3.94522 20.9225 3.75945 20.467 3.83667 20.0168L4.90894 13.7578L0.363234 9.3293L0.249562 9.20273C0.0100221 8.89216 -0.0646089 8.47992 0.0585466 8.1C0.1994 7.66559 0.574643 7.34808 1.02652 7.28203L7.31245 6.36328L10.1238 0.669141L10.2093 0.522656C10.4308 0.198668 10.8 0.000129202 11.1996 0ZM9.18628 7.99102L9.11362 8.11875C8.92679 8.40347 8.62543 8.59722 8.28394 8.64727L8.1105 7.46016H8.10933L8.28394 8.64727L3.77691 9.30586L7.03706 12.4805C7.32011 12.7562 7.44956 13.1539 7.38277 13.5434L6.20034 13.3395H6.19917L7.38277 13.5434L6.61284 18.0258L10.6417 15.9082L10.7753 15.8473C11.0943 15.7266 11.4526 15.7473 11.7585 15.9082L11.1996 16.9687V16.9699L11.7585 15.9082L15.7863 18.0258L15.0175 13.5434C14.9507 13.1539 15.0802 12.7562 15.3632 12.4805L18.621 9.30586L14.1164 8.64727C13.726 8.59018 13.3887 8.34482 13.214 7.99102L11.1996 3.91055L9.18628 7.99102ZM21.3738 7.28203C21.8256 7.34814 22.2009 7.66565 22.3417 8.1C22.4825 8.53432 22.3641 9.01071 22.0371 9.3293L21.2003 8.47031L21.3738 7.28203Z" fill="var(--fill-0, #B2B2B2)"/>
</svg>
