<svg preserveAspectRatio="none" width="100%" height="100%" overflow="visible" style="display: block;" viewBox="0 0 33.4999 33.4999" fill="none" xmlns="http://www.w3.org/2000/svg">
<path id="Icon" d="M26.667 15.083C26.6668 8.68586 21.4802 3.5 15.083 3.5C8.68597 3.50018 3.50018 8.68597 3.5 15.083C3.5 21.4802 8.68586 26.6668 15.083 26.667C18.2108 26.667 21.0467 25.4241 23.1309 23.4092C23.1714 23.3584 23.2157 23.3097 23.2627 23.2627C23.3097 23.2157 23.3584 23.1714 23.4092 23.1309C25.4241 21.0467 26.667 18.2108 26.667 15.083ZM30.167 15.083C30.167 18.6176 28.9492 21.8672 26.9131 24.4385L32.9873 30.5127C33.6707 31.1961 33.6707 32.3039 32.9873 32.9873C32.3039 33.6707 31.1961 33.6707 30.5127 32.9873L24.4385 26.9131C21.8672 28.9492 18.6176 30.167 15.083 30.167C6.75286 30.1668 0 23.4132 0 15.083C0.000175759 6.75297 6.75297 0.000175748 15.083 0C23.4132 0 30.1668 6.75286 30.167 15.083Z" fill="var(--fill-0, #17191C)"/>
</svg>
