<svg preserveAspectRatio="none" width="100%" height="100%" overflow="visible" style="display: block;" viewBox="0 0 13.5995 13.5995" fill="none" xmlns="http://www.w3.org/2000/svg">
<path id="Icon" d="M10.666 6.13281C10.6658 3.62927 8.63639 1.59961 6.13281 1.59961C3.62938 1.59979 1.59979 3.62938 1.59961 6.13281C1.59961 8.63639 3.62927 10.6658 6.13281 10.666C7.35335 10.666 8.46039 10.1829 9.27539 9.39844C9.2934 9.37607 9.31321 9.35475 9.33398 9.33398C9.35475 9.31321 9.37607 9.2934 9.39844 9.27539C10.1829 8.46039 10.666 7.35335 10.666 6.13281ZM12.2666 6.13281C12.2666 7.53811 11.792 8.83197 10.9971 9.86621L13.3652 12.2344C13.6777 12.5468 13.6777 13.0528 13.3652 13.3652C13.0528 13.6777 12.5468 13.6777 12.2344 13.3652L9.86621 10.9971C8.83197 11.792 7.53811 12.2666 6.13281 12.2666C2.74562 12.2664 0 9.52005 0 6.13281C0.000176006 2.74572 2.74572 0.000176004 6.13281 0C9.52005 0 12.2664 2.74562 12.2666 6.13281Z" fill="var(--fill-0, #B2B2B2)"/>
</svg>
