<svg preserveAspectRatio="none" width="100%" height="100%" overflow="visible" style="display: block;" viewBox="0 0 40 27" fill="none" xmlns="http://www.w3.org/2000/svg">
<g id="Switch">
<path d="M13 3.5H33C36.5899 3.5 39.5 6.41015 39.5 10C39.5 13.5899 36.5899 16.5 33 16.5H13C9.41015 16.5 6.5 13.5899 6.5 10C6.5 6.41015 9.41015 3.5 13 3.5Z" fill="var(--fill-0, white)"/>
<path d="M13 3.5H33C36.5899 3.5 39.5 6.41015 39.5 10C39.5 13.5899 36.5899 16.5 33 16.5H13C9.41015 16.5 6.5 13.5899 6.5 10C6.5 6.41015 9.41015 3.5 13 3.5Z" stroke="var(--stroke-0, #BABFCC)"/>
<g id="Knob" filter="url(#filter0_dd_3253_3639)">
<path d="M23 10C23 15.5228 18.5228 20 13 20C7.47715 20 3 15.5228 3 10C3 4.47715 7.47715 0 13 0C18.5228 0 23 4.47715 23 10Z" fill="var(--fill-0, white)"/>
<path d="M13 0.5C18.2467 0.5 22.5 4.75329 22.5 10C22.5 15.2467 18.2467 19.5 13 19.5C7.75329 19.5 3.5 15.2467 3.5 10C3.5 4.75329 7.75329 0.5 13 0.5Z" stroke="var(--stroke-0, #BABFCC)"/>
</g>
</g>
<defs>
<filter id="filter0_dd_3253_3639" x="0" y="0" width="26" height="27" filterUnits="userSpaceOnUse" color-interpolation-filters="sRGB">
<feFlood flood-opacity="0" result="BackgroundImageFix"/>
<feColorMatrix in="SourceAlpha" type="matrix" values="0 0 0 0 0 0 0 0 0 0 0 0 0 0 0 0 0 0 127 0" result="hardAlpha"/>
<feMorphology radius="1" operator="erode" in="SourceAlpha" result="effect1_dropShadow_3253_3639"/>
<feOffset dy="4"/>
<feGaussianBlur stdDeviation="2"/>
<feComposite in2="hardAlpha" operator="out"/>
<feColorMatrix type="matrix" values="0 0 0 0 0.0743502 0 0 0 0 0.0743502 0 0 0 0 0.0743502 0 0 0 0.1 0"/>
<feBlend mode="normal" in2="BackgroundImageFix" result="effect1_dropShadow_3253_3639"/>
<feColorMatrix in="SourceAlpha" type="matrix" values="0 0 0 0 0 0 0 0 0 0 0 0 0 0 0 0 0 0 127 0" result="hardAlpha"/>
<feMorphology radius="1" operator="erode" in="SourceAlpha" result="effect2_dropShadow_3253_3639"/>
<feOffset dy="4"/>
<feGaussianBlur stdDeviation="2"/>
<feComposite in2="hardAlpha" operator="out"/>
<feColorMatrix type="matrix" values="0 0 0 0 0.0743502 0 0 0 0 0.0743502 0 0 0 0 0.0743502 0 0 0 0.2 0"/>
<feBlend mode="normal" in2="effect1_dropShadow_3253_3639" result="effect2_dropShadow_3253_3639"/>
<feBlend mode="normal" in="SourceGraphic" in2="effect2_dropShadow_3253_3639" result="shape"/>
</filter>
</defs>
</svg>
