<svg preserveAspectRatio="none" width="100%" height="100%" overflow="visible" style="display: block;" viewBox="0 0 9.66654 9.66654" fill="none" xmlns="http://www.w3.org/2000/svg">
<path id="Icon" d="M8.24408 0.244078C8.56951 -0.0813592 9.09703 -0.0813592 9.42246 0.244078C9.7479 0.569515 9.7479 1.09703 9.42246 1.42246L6.01166 4.83327L9.42246 8.24408C9.7479 8.56951 9.7479 9.09703 9.42246 9.42246C9.09703 9.7479 8.56951 9.7479 8.24408 9.42246L4.83327 6.01166L1.42246 9.42246C1.09703 9.7479 0.569515 9.7479 0.244078 9.42246C-0.0813592 9.09703 -0.0813592 8.56951 0.244078 8.24408L3.65489 4.83327L0.244078 1.42246C-0.0813592 1.09703 -0.0813592 0.569515 0.244078 0.244078C0.569515 -0.0813592 1.09703 -0.0813592 1.42246 0.244078L4.83327 3.65489L8.24408 0.244078Z" fill="var(--fill-0, #FFE9E8)"/>
</svg>
